<svg width="72" height="37" viewBox="0 0 72 37" fill="none" xmlns="http://www.w3.org/2000/svg">
<g clip-path="url(#clip0_19_2244)">
<path d="M69 0H3C1.34315 0 0 1.34315 0 3V34C0 35.6569 1.34315 37 3 37H69C70.6569 37 72 35.6569 72 34V3C72 1.34315 70.6569 0 69 0Z" fill="#0E4595"/>
<path d="M63.6921 18.5008C63.6921 25.8366 56.2751 31.7838 47.1248 31.7838C37.9752 31.7838 30.5574 25.8371 30.5574 18.5008C30.5574 11.1643 37.975 5.21704 47.1248 5.21704C56.2755 5.21704 63.6921 11.1642 63.6921 18.5008Z" fill="#D9222A"/>
<path d="M34.3263 26.9353C33.8676 26.4891 33.4459 26.0192 33.064 25.5285H38.9358C39.2892 25.0755 39.608 24.6056 39.8905 24.1216H32.1097C31.8426 23.664 31.6085 23.1947 31.4085 22.7156H40.591C41.1435 21.3908 41.4429 19.9739 41.4429 18.5004C41.4429 17.535 41.3144 16.5939 41.0711 15.6874H30.9301C31.058 15.2118 31.2184 14.7422 31.411 14.2808H40.59C40.3896 13.8019 40.1556 13.3324 39.8892 12.8745H32.1119C32.3947 12.3908 32.7134 11.9211 33.0661 11.4679H38.9342C38.5517 10.9781 38.1302 10.5087 37.6723 10.0625H34.3285C34.8426 9.56208 35.4014 9.09218 36.0004 8.65654C33.06 6.51912 29.1569 5.2168 24.8755 5.2168C15.7254 5.21687 8.30811 11.164 8.30811 18.5005C8.30811 25.8364 15.7258 31.7835 24.8764 31.7835C29.1584 31.7835 33.0611 30.4814 36.0013 28.3444C36.6012 27.9081 37.1607 27.4371 37.6751 26.9356H34.3274" fill="#0097D0"/>
<path d="M35.764 22.0891C35.0559 22.2396 34.3713 22.313 33.6474 22.3119C31.3381 22.3101 30.1355 21.4669 30.1355 19.855C30.1355 17.9711 31.6666 16.5855 33.7448 16.5855C35.4448 16.5855 36.5302 17.3625 36.5302 18.5795C36.5302 18.9834 36.4567 19.3765 36.2768 19.9334H32.1702C32.0241 20.7202 32.7414 21.066 33.9622 21.066C34.6937 21.066 35.3553 20.9604 36.0875 20.7247L35.764 22.0891ZM34.6597 18.822C34.6597 18.703 34.8883 17.8575 33.6998 17.839C33.0437 17.839 32.5729 18.1887 32.3825 18.822H34.6597ZM37.1552 18.4527C37.1552 19.1486 37.644 19.6293 38.7548 19.9872C39.6039 20.2662 39.7378 20.3467 39.7378 20.5956C39.7378 20.9407 39.3624 21.0992 38.5293 21.0947C37.9036 21.0911 37.3328 21.0303 36.6588 20.8804L36.3608 22.1498C36.9596 22.2611 37.7997 22.2978 38.5438 22.3117C40.7614 22.3117 41.7852 21.7296 41.7852 20.4716C41.7852 19.7155 41.3583 19.2703 40.3053 18.9388C39.4249 18.6569 39.3215 18.5956 39.3215 18.3407C39.3215 18.041 39.6703 17.8893 40.3506 17.8893C40.7626 17.8893 41.3271 17.9198 41.8626 17.9713L42.1634 16.6954C41.6177 16.6343 40.7895 16.5856 40.3103 16.5856C37.9613 16.5857 37.1483 17.4337 37.1552 18.4527ZM29.0098 22.2208H27.2871L27.3282 21.6421C26.8029 22.0987 26.1032 22.3111 25.1536 22.3111C24.0298 22.3111 23.2597 21.6952 23.2597 20.8093C23.2597 19.4629 24.5982 18.6862 26.8993 18.6862C27.1359 18.6862 27.4367 18.7003 27.7455 18.7278C27.8093 18.5476 27.8267 18.4703 27.8267 18.372C27.8267 18.0035 27.4647 17.8678 26.4963 17.8678C25.5417 17.8709 24.8975 17.9841 24.2998 18.113L24.594 16.8772C25.6274 16.6666 26.3044 16.5855 27.0702 16.5855C28.8521 16.5855 29.7932 17.1454 29.7932 18.1984C29.8086 18.4793 29.6863 19.043 29.6252 19.2896C29.5551 19.6487 29.0613 21.7296 29.0098 22.2208ZM27.4979 19.7647C27.2795 19.7467 27.1844 19.7416 27.0351 19.7416C25.8601 19.7416 25.2644 20.0218 25.2644 20.5753C25.2644 20.9225 25.5551 21.1402 26.0082 21.1402C26.8525 21.1402 27.462 20.574 27.4979 19.7647ZM45.4157 22.1335C44.8503 22.2578 44.4099 22.3117 43.9333 22.3117C42.8778 22.3117 42.3017 21.8793 42.3017 21.1092C42.2687 20.8977 42.5265 19.9208 42.5847 19.6487C42.6432 19.3756 43.5575 15.3943 43.5575 15.3943H45.6078L45.2974 16.7115H46.3491L46.0632 18.0561H45.0072C45.0072 18.0561 44.4276 20.3893 44.4276 20.5673C44.4276 20.8502 44.6414 20.9733 45.1322 20.9733C45.3672 20.9733 45.5485 20.9558 45.6887 20.9221L45.4157 22.1335ZM54.5769 16.5854C53.0742 16.5854 51.8999 17.0812 51.218 17.9094L51.8098 16.6813C50.7191 16.3604 50.0159 16.8182 49.3798 17.4694C49.3798 17.4694 49.2733 17.5776 49.1675 17.6766V16.7109H47.2422C46.9814 18.415 46.5203 20.1429 46.1595 21.8499L46.0726 22.2215H48.1438C48.34 21.3551 48.5015 20.6517 48.6623 20.0911C49.1025 18.5529 49.8427 18.0827 50.9543 18.2905C50.6977 18.7329 50.5569 19.2445 50.5569 19.8115C50.5569 21.1864 51.4884 22.3119 53.8014 22.3119C56.1356 22.3119 57.8257 21.3121 57.8257 19.0329C57.8257 17.6581 56.6995 16.5854 54.5769 16.5854ZM53.9742 20.9748C53.2426 20.984 52.7992 20.492 52.7992 19.7559C52.7992 18.8834 53.4466 17.8976 54.486 17.8976C55.3248 17.8976 55.6121 18.4307 55.6121 18.9987C55.6122 20.2404 54.9776 20.9748 53.9742 20.9748ZM22.2951 22.2215H20.2328L21.4585 17.0449L18.6366 22.2215H16.7567L16.4127 17.0748L15.1832 22.2215H13.312L14.9059 15.4877H18.1286L18.3974 19.2415L20.439 15.4877H23.9209L22.2951 22.2215Z" fill="#323232"/>
<path d="M57.9831 21.3771C57.9833 21.1404 58.2228 20.9485 58.5181 20.9483C58.8139 20.9483 59.0532 21.1407 59.0532 21.3771C59.0587 21.614 58.8236 21.8097 58.5281 21.814C58.2326 21.8185 57.9886 21.6301 57.9831 21.3931C57.9829 21.3878 57.9829 21.3825 57.9831 21.3771ZM58.5181 21.7037C58.7429 21.7035 58.925 21.5573 58.925 21.3771C58.925 21.1971 58.7426 21.0514 58.5181 21.0514C58.2935 21.0514 58.1112 21.1972 58.1112 21.3771C58.1112 21.5573 58.2934 21.7035 58.5181 21.7037ZM58.4458 21.5656H58.3361V21.1894H58.5346C58.576 21.1894 58.6184 21.1894 58.6549 21.2079C58.6926 21.2285 58.7146 21.2648 58.7146 21.302C58.7146 21.3447 58.6835 21.3845 58.6331 21.3993L58.7193 21.5655H58.5978L58.5266 21.4168H58.4459V21.5656H58.4458ZM58.4458 21.3519H58.5065C58.5288 21.3519 58.553 21.3532 58.5734 21.3447C58.591 21.3347 58.6012 21.3185 58.6008 21.3012C58.6003 21.286 58.5906 21.2718 58.5746 21.2633C58.5551 21.2537 58.5247 21.2561 58.5042 21.2561H58.4458V21.3519ZM36.2818 21.6741C35.574 21.8245 34.889 21.8982 34.1656 21.897C31.8564 21.8951 30.6537 21.0519 30.6537 19.4396C30.6537 17.5563 32.184 16.1704 34.2625 16.1704C35.9629 16.1704 37.0479 16.9471 37.0479 18.1641C37.0479 18.5686 36.9741 18.9611 36.795 19.5183H32.6885C32.5423 20.3049 33.2589 20.6511 34.48 20.6511C35.2116 20.6511 35.8727 20.5457 36.6057 20.3095L36.2818 21.6741ZM35.1775 18.407C35.1775 18.2883 35.4057 17.4426 34.2177 17.4244C33.5616 17.4244 33.0912 17.7743 32.9004 18.407H35.1775ZM37.6733 18.0373C37.6733 18.7335 38.1613 19.2139 39.2725 19.5725C40.1221 19.8513 40.2554 19.9319 40.2554 20.1803C40.2554 20.5255 39.8802 20.6841 39.0474 20.6798C38.4213 20.6763 37.8504 20.6153 37.177 20.4655L36.8782 21.7343C37.4773 21.8464 38.3179 21.8831 39.0615 21.897C41.2792 21.897 42.3035 21.3145 42.3035 20.0565C42.3035 19.3005 41.8762 18.8551 40.8228 18.5238C39.9423 18.242 39.8393 18.1806 39.8393 17.9257C39.8393 17.626 40.1885 17.4743 40.8682 17.4743C41.2809 17.4743 41.8451 17.5052 42.3809 17.5567L42.6809 16.2805C42.1351 16.2194 41.3075 16.1707 40.8288 16.1707C38.4787 16.1706 37.666 17.0182 37.6733 18.0373ZM29.5279 21.8061H27.8049L27.8464 21.2274C27.3206 21.6831 26.621 21.8959 25.6717 21.8959C24.5479 21.8959 23.7775 21.2798 23.7775 20.3946C23.7775 19.0475 25.1155 18.2711 27.4171 18.2711C27.6537 18.2711 27.954 18.2853 28.2636 18.3128C28.3274 18.1328 28.3444 18.0556 28.3444 17.957C28.3444 17.5883 27.9828 17.4528 27.0144 17.4528C26.0598 17.456 25.4156 17.5694 24.8179 17.698L25.1118 16.4625C26.1456 16.2516 26.8222 16.1705 27.5883 16.1705C29.3702 16.1705 30.3109 16.7305 30.3109 17.7831C30.3264 18.0643 30.204 18.6277 30.1433 18.8749C30.0729 19.2337 29.5791 21.3145 29.5279 21.8061ZM28.0152 19.3495C27.7976 19.3314 27.7021 19.3264 27.5525 19.3264C26.3783 19.3264 25.782 19.6067 25.782 20.1602C25.782 20.5076 26.0732 20.725 26.5256 20.725C27.3707 20.725 27.9802 20.1587 28.0152 19.3495ZM45.9331 21.7188C45.3682 21.8428 44.9273 21.897 44.4511 21.897C43.3956 21.897 42.8199 21.4644 42.8199 20.6942C42.7866 20.483 43.0447 19.5058 43.1027 19.2337C43.1612 18.9604 44.0753 14.9792 44.0753 14.9792H46.1254L45.8158 16.2964H46.8674L46.5816 17.6411H45.5256C45.5256 17.6411 44.9456 19.9743 44.9456 20.1521C44.9456 20.4352 45.1597 20.5576 45.6502 20.5576C45.8848 20.5576 46.0664 20.5406 46.2067 20.5065L45.9331 21.7188ZM56.1303 18.5836C56.1303 19.825 55.4952 20.5601 54.4914 20.5601C53.7602 20.5684 53.3167 20.0773 53.3167 19.341C53.3167 18.4683 53.9637 17.4826 55.0032 17.4826C55.8426 17.4826 56.1303 18.0164 56.1303 18.5836ZM58.3438 18.6182C58.3438 17.2434 57.2169 16.1704 55.0951 16.1704C52.6535 16.1704 51.075 17.4746 51.075 19.3965C51.075 20.7712 52.0058 21.897 54.3195 21.897C56.6538 21.897 58.3438 20.8971 58.3438 18.6182ZM47.7598 16.2959C47.4994 18 47.0383 19.7276 46.6777 21.4352L46.5904 21.8067H48.6613C49.4079 18.5094 49.6583 17.57 51.222 17.9008L51.9743 16.3404C50.8836 16.0195 50.1812 16.4776 49.5457 17.1291C49.6031 16.8359 49.7112 16.5532 49.685 16.296L47.7598 16.2959ZM22.8127 21.8066H20.7507L21.9761 16.6297L19.1538 21.8066H17.2742L16.9303 16.6596L15.7008 21.8066H13.8296L15.4231 15.0726H18.6466L18.817 19.2414L21.0854 15.0726H24.4385L22.8127 21.8066Z" fill="white"/>
</g>
<defs>
<clipPath id="clip0_19_2244">
<rect width="72" height="37" fill="white"/>
</clipPath>
</defs>
</svg>
